<svg version="1.1" xmlns="http://www.w3.org/2000/svg" xmlns:xlink="http://www.w3.org/1999/xlink"
	width="100px" height="100px" viewBox="0,0,256,256">
	<defs>
		<linearGradient x1="256" y1="8" x2="256" y2="512.892" gradientUnits="userSpaceOnUse"
			id="color-1">
			<stop offset="0" stop-color="#FFFFFF"></stop>
			<stop offset="1" stop-color="#FFFFFF"></stop>
		</linearGradient>
	</defs>
	<g fill="url(#color-1)" fill-rule="nonzero" stroke="none" stroke-width="1" stroke-linecap="butt"
		stroke-linejoin="miter" stroke-miterlimit="10" stroke-dasharray="" stroke-dashoffset="0"
		font-family="none" font-weight="none" font-size="none" text-anchor="none"
		style="mix-blend-mode: normal">
		<g transform="scale(0.5,0.5)">
			<g>
				<path
					d="M409.391,222h-1.391v-28.25c0.03185,-39.54733 -15.77899,-77.4595 -43.9,-105.266c-28.05586,-27.98311 -66.01579,-43.77241 -105.641,-43.941c-82.273,0 -149.459,66.934 -149.459,149.207v28.25h-6.391c-22.893,0 -41.609,18.2 -41.609,41.092v65.664c0.04392,10.98839 4.45348,21.50876 12.25766,29.24448c7.80418,7.73572 18.363,12.05241 29.35134,11.99952h38.873c2.57377,0.04311 5.05187,-0.97474 6.85228,-2.81449c1.8004,-1.83975 2.76446,-4.33928 2.66572,-6.91151v-128.7c0.0931,-2.55679 -0.87785,-5.03777 -2.68166,-6.85219c-1.80381,-1.81442 -4.27905,-2.79991 -6.83634,-2.72181h-12.482v-28.25c0,-71.245 58.172,-129.207 129.349,-129.207c34.336,0.15672 67.22517,13.84692 91.531,38.1c24.37317,24.05323 38.10134,56.86362 38.12,91.107v28.25h-12.229c-2.58285,-0.08774 -5.08896,0.88603 -6.93498,2.69464c-1.84601,1.8086 -2.87088,4.29426 -2.83602,6.87836v128.7c-0.04127,2.59986 0.97637,5.10476 2.81913,6.93922c1.84276,1.83446 4.35222,2.84078 6.95187,2.78778h13.264l-1.9,2.711c-15.87361,21.24986 -40.87608,33.72291 -67.4,33.624c-4.99508,-26.07433 -28.98954,-44.08127 -55.421,-41.59138c-26.43146,2.48989 -46.64108,24.66094 -46.679,51.20938c0,28.4 23.339,51.5 52.025,51.5c25.117,0 46.04,-17.758 50.243,-41.05c0.119,0 0.237,0.005 0.356,0.005c32.65844,-0.06284 63.38352,-15.49003 82.941,-41.645l10.89,-14.666c22.239,-1.713 36.91,-15.781 36.91,-36.088v-65.664c0,-22.079 -17.846,-46.345 -41.609,-46.345zM131,242v108h-28.391c-5.68585,0.05915 -11.16119,-2.14837 -15.21601,-6.13469c-4.05482,-3.98633 -6.35528,-9.42327 -6.39299,-15.10931v-65.664c0,-11.866 9.743,-21.092 21.609,-21.092zM269.658,447.457c-17.359,0 -32.025,-14.425 -32.025,-31.5c0,-17.39697 14.10303,-31.5 31.5,-31.5c17.39697,0 31.5,14.10303 31.5,31.5c0,0.272 0.011,0.54467 0.033,0.818c0.019,0.222 0.019,0.574 0.019,1.02c0,16.356 -13.918,29.662 -31.027,29.662zM431,334.009c0,15.091 -16.562,15.991 -21.609,15.991h-23.391v-108h23.391c9.686,0 21.609,11.927 21.609,26.345z"></path>
			</g>
		</g>
	</g>
</svg>